/* XPM */
static char * lcmc_xpm[] = {
"32 32 392 2",
"  	c None",
". 	c #E7FEFE",
"+ 	c #DAF5FB",
"@ 	c #CEEEF8",
"# 	c #DCF6FB",
"$ 	c #E6FEFE",
"% 	c #E9FEFE",
"& 	c #E2F9FD",
"* 	c #BCE2F4",
"= 	c #B0DBF1",
"- 	c #B1DBF1",
"; 	c #AFDBF1",
"> 	c #C8E9F7",
", 	c #F0FEFE",
"' 	c #E3FBFE",
") 	c #DEF8FC",
"! 	c #E6FDFE",
"~ 	c #E9FFFF",
"{ 	c #D7F3FA",
"] 	c #BEE6F5",
"^ 	c #A3D6EF",
"/ 	c #A2D5EF",
"( 	c #A1D5EF",
"_ 	c #AEDCF2",
": 	c #EDFCFE",
"< 	c #E9FCFF",
"[ 	c #DCF8FE",
"} 	c #C8F2FE",
"| 	c #E5FDFE",
"1 	c #DCF7FC",
"2 	c #AEE1F5",
"3 	c #BCE7F7",
"4 	c #ACDEF4",
"5 	c #DFF8FC",
"6 	c #EAFEFE",
"7 	c #B2E0F4",
"8 	c #98D2EE",
"9 	c #98D2EF",
"0 	c #B2DFF4",
"a 	c #E6FBFE",
"b 	c #D9F7FE",
"c 	c #D0F4FE",
"d 	c #C5EEFB",
"e 	c #E8FEFE",
"f 	c #EBFFFF",
"g 	c #E7FDFE",
"h 	c #B1E4F6",
"i 	c #9FD9F3",
"j 	c #E1FAFD",
"k 	c #C3E9F7",
"l 	c #96D2EF",
"m 	c #95D1EF",
"n 	c #9ED6F1",
"o 	c #EAFCFE",
"p 	c #E2FAFF",
"q 	c #D6F6FE",
"r 	c #CAF2FE",
"s 	c #C2EEFB",
"t 	c #BBE9F7",
"u 	c #C9EDF5",
"v 	c #D7F3F9",
"w 	c #E2FAFD",
"x 	c #C7EDF8",
"y 	c #7BCAEE",
"z 	c #93D6F2",
"A 	c #A6DEF4",
"B 	c #9ED9F2",
"C 	c #89CDEE",
"D 	c #8ACDEE",
"E 	c #A5DBF3",
"F 	c #97D4F1",
"G 	c #9BD6F1",
"H 	c #E4FAFE",
"I 	c #DDF9FF",
"J 	c #D0F5FE",
"K 	c #C5F0FD",
"L 	c #BBEBF9",
"M 	c #BCE9F6",
"N 	c #A1DDEF",
"O 	c #4EA0CD",
"P 	c #6AB3DA",
"Q 	c #83C6E5",
"R 	c #6CBAE3",
"S 	c #70C1E9",
"T 	c #73C5ED",
"U 	c #7ACBEF",
"V 	c #7CCAEE",
"W 	c #7CC9ED",
"X 	c #ACE0F4",
"Y 	c #E8FDFE",
"Z 	c #EBFDFE",
"` 	c #E7FBFE",
" .	c #E4FBFE",
"..	c #D7F7FE",
"+.	c #C6F2FE",
"@.	c #BBEDFC",
"#.	c #BDEBF9",
"$.	c #B2E5F4",
"%.	c #A6DEEF",
"&.	c #1C83B8",
"*.	c #509AC8",
"=.	c #61A9D3",
"-.	c #65B4DB",
";.	c #65B4DD",
">.	c #68B9E3",
",.	c #6ABDE7",
"'.	c #6BBFEA",
").	c #95D6F2",
"!.	c #87CFF0",
"~.	c #DBF7FC",
"{.	c #B4E4F6",
"].	c #EDFEFF",
"^.	c #E5FCFE",
"/.	c #D9F8FE",
"(.	c #C9F3FE",
"_.	c #C0EFFE",
":.	c #B9EBFA",
"<.	c #B4E7F6",
"[.	c #AFE3F3",
"}.	c #A3DCEE",
"|.	c #77C7E0",
"1.	c #1777AE",
"2.	c #4693C1",
"3.	c #5AA3CE",
"4.	c #5AA3D0",
"5.	c #5FB1D9",
"6.	c #60B1DC",
"7.	c #62B6E0",
"8.	c #63B5E2",
"9.	c #AFE1F3",
"0.	c #9FD9F1",
"a.	c #C2ECF8",
"b.	c #E7FCFE",
"c.	c #E6FCFF",
"d.	c #D8F8FE",
"e.	c #CDF4FE",
"f.	c #C1F1FD",
"g.	c #B9ECFC",
"h.	c #B4E8F8",
"i.	c #AAE3F4",
"j.	c #A9E0F0",
"k.	c #9DD9EC",
"l.	c #6CC0DC",
"m.	c #1465A1",
"n.	c #3083B6",
"o.	c #5199C5",
"p.	c #539DCA",
"q.	c #54A0CE",
"r.	c #56A6D3",
"s.	c #59ACD8",
"t.	c #5CB2DC",
"u.	c #87C8E7",
"v.	c #EBFEFE",
"w.	c #E1FBFE",
"x.	c #C1EDFA",
"y.	c #B7ECFC",
"z.	c #ADE7F9",
"A.	c #ACE4F5",
"B.	c #A4DFF1",
"C.	c #A2DCEE",
"D.	c #8BD0E6",
"E.	c #61B6D6",
"F.	c #125E9A",
"G.	c #176EA6",
"H.	c #428ABA",
"I.	c #4B9BC6",
"J.	c #4B94C4",
"K.	c #4E9ECB",
"L.	c #4F9CCD",
"M.	c #8FC7E4",
"N.	c #C1E9F6",
"O.	c #BBE4F3",
"P.	c #BBE7F5",
"Q.	c #C8F2FC",
"R.	c #BEECFA",
"S.	c #6BB5DD",
"T.	c #9DDDF4",
"U.	c #AFE8F9",
"V.	c #A6E3F5",
"W.	c #A2DFF2",
"X.	c #A5DEEF",
"Y.	c #95D6E9",
"Z.	c #6DC0DB",
"`.	c #15619C",
" +	c #11629A",
".+	c #12629C",
"++	c #1C6DA5",
"@+	c #3E85B6",
"#+	c #448FBE",
"$+	c #4698C5",
"%+	c #4694C4",
"&+	c #A1D5EB",
"*+	c #A4D8EE",
"=+	c #5BA8D4",
"-+	c #53A2D0",
";+	c #79BCDF",
">+	c #6DB8DD",
",+	c #88CBE8",
"'+	c #9FDFF4",
")+	c #A7E3F6",
"!+	c #A4E0F2",
"~+	c #9DDBEE",
"{+	c #8CCEE4",
"]+	c #72C3DE",
"^+	c #5EB2D2",
"/+	c #115C97",
"(+	c #0F5993",
"_+	c #105B95",
":+	c #12649C",
"<+	c #18649F",
"[+	c #317AAE",
"}+	c #4A92C0",
"|+	c #77BBDC",
"1+	c #BEF0FD",
"2+	c #B9EFFE",
"3+	c #B9EFFD",
"4+	c #97D6EF",
"5+	c #61ADD4",
"6+	c #79BEDF",
"7+	c #77BFDF",
"8+	c #9FDFF3",
"9+	c #9BDDF1",
"0+	c #8CCDE5",
"a+	c #71B7D6",
"b+	c #2375A9",
"c+	c #1D69A0",
"d+	c #4C9AC5",
"e+	c #0F558F",
"f+	c #0C4D89",
"g+	c #0E518C",
"h+	c #10619A",
"i+	c #115894",
"j+	c #13659E",
"k+	c #62ADD3",
"l+	c #A0E7FC",
"m+	c #A8E8FC",
"n+	c #A4E7FB",
"o+	c #A7E7FB",
"p+	c #A0E4F9",
"q+	c #9EE3F6",
"r+	c #A0E1F5",
"s+	c #97DDF2",
"t+	c #7BC1DF",
"u+	c #8AD4EA",
"v+	c #81D0E7",
"w+	c #63B8D7",
"x+	c #135C97",
"y+	c #105F98",
"z+	c #155E97",
"A+	c #0C4783",
"B+	c #0A4685",
"C+	c #0C4884",
"D+	c #0D4D89",
"E+	c #0F5791",
"F+	c #73C2E1",
"G+	c #8DDDF5",
"H+	c #92DFF5",
"I+	c #8FDDF4",
"J+	c #94DEF4",
"K+	c #8EDBF2",
"L+	c #8CD9F0",
"M+	c #8CD8EE",
"N+	c #81D2EB",
"O+	c #76CAE4",
"P+	c #60B4D4",
"Q+	c #70C6E0",
"R+	c #2979AA",
"S+	c #0C4986",
"T+	c #0A4482",
"U+	c #083976",
"V+	c #0A4484",
"W+	c #0B417D",
"X+	c #0C4682",
"Y+	c #0D508C",
"Z+	c #5BA5CA",
"`+	c #88D8EF",
" @	c #8AD9F0",
".@	c #86D7EE",
"+@	c #88D8EE",
"@@	c #82D4EC",
"#@	c #7FD2EA",
"$@	c #7FD1E9",
"%@	c #78CDE5",
"&@	c #73C9E2",
"*@	c #6BC1DC",
"=@	c #59ADCF",
"-@	c #185991",
";@	c #0B4683",
">@	c #094485",
",@	c #083975",
"'@	c #073776",
")@	c #083D7B",
"!@	c #09407D",
"~@	c #0B4582",
"{@	c #28679A",
"]@	c #7ACEE8",
"^@	c #7CD0E8",
"/@	c #78CDE6",
"(@	c #7BCFE7",
"_@	c #76CBE5",
":@	c #73C9E3",
"<@	c #6CC2DE",
"[@	c #67BEDB",
"}@	c #61B5D7",
"|@	c #4893C0",
"1@	c #0B417C",
"2@	c #09417F",
"3@	c #084080",
"4@	c #053279",
"5@	c #062F6B",
"6@	c #073571",
"7@	c #083E7F",
"8@	c #093F7D",
"9@	c #296A9E",
"0@	c #367AA8",
"a@	c #1B568C",
"b@	c #4F9BC1",
"c@	c #6CC3DE",
"d@	c #6AC1DC",
"e@	c #69C0DC",
"f@	c #62B5D7",
"g@	c #5CAAD3",
"h@	c #559FCD",
"i@	c #165291",
"j@	c #083C7A",
"k@	c #073673",
"l@	c #06316F",
"m@	c #052F70",
"n@	c #042F70",
"o@	c #052D6B",
"p@	c #053170",
"q@	c #06316C",
"r@	c #083B7B",
"s@	c #083B79",
"t@	c #104A88",
"u@	c #5FB1D3",
"v@	c #60B2D6",
"w@	c #5EADD5",
"x@	c #57A0CE",
"y@	c #5194C2",
"z@	c #336B9B",
"A@	c #063473",
"B@	c #052E69",
"C@	c #052F6F",
"D@	c #042E6E",
"E@	c #052D6C",
"F@	c #043075",
"G@	c #052D6A",
"H@	c #052F6D",
"I@	c #053171",
"J@	c #24598F",
"K@	c #5092C3",
"L@	c #4D8FBB",
"M@	c #4680A9",
"N@	c #3F7498",
"O@	c #2B5A7F",
"P@	c #052E6E",
"Q@	c #052E6D",
"R@	c #053075",
"S@	c #042D6B",
"T@	c #052C6A",
"U@	c #052E6F",
"V@	c #042F73",
"W@	c #053074",
"X@	c #225588",
"Y@	c #417B9F",
"Z@	c #3D7697",
"`@	c #376986",
" #	c #235078",
".#	c #09326F",
"+#	c #043074",
"@#	c #052C68",
"##	c #04275D",
"$#	c #042C67",
"%#	c #042D6D",
"&#	c #042B66",
"*#	c #153D6C",
"=#	c #2F586E",
"-#	c #2A526A",
";#	c #1A4063",
">#	c #052C66",
",#	c #031B40",
"'#	c #04265A",
")#	c #062D66",
"!#	c #052C69",
"~#	c #04265B",
"{#	c #031A3F",
"]#	c #010B19",
"^#	c #00060E",
"/#	c #00050D",
"(#	c #000206",
"_#	c #000000",
"                                                                ",
"                                                                ",
"                                                                ",
"                                                                ",
"                            . + @ #                             ",
"                      $ % & * = - ; > , '                       ",
"                  ) ! ~ ! { ] ^ / ( _ : < [ }                   ",
"                | 1 2 3 4 5 6 7 8 9 0 , a b c d                 ",
"              e f g h i j % k l l m n o p q r s t               ",
"            u v w x y z A B C D E F G H I J K L M N             ",
"            O P Q R S T U V W X Y Z `  ...+.@.#.$.%.            ",
"          &.*.=.-.;.>.,.'.).!.~.{.].^./.(._.:.<.[.}.|.          ",
"          1.2.3.4.5.6.7.8.9.0.a.b.c.d.e.f.g.h.i.j.k.l.          ",
"          m.n.o.p.q.r.s.t.u.v.% w./.x.@.y.z.A.B.C.D.E.          ",
"          F.G.H.I.J.K.L.M.N.O.P.Q.R.S.T.U.V.W.X.Y.Z.`.          ",
"           +.+++@+#+$+%+&+*+=+-+;+>+,+'+)+!+~+{+]+^+/+          ",
"          (+_+:+<+[+}+|+1+2+3+4+5+6+7+8+9+0+a+b+c+d+e+          ",
"          f+g+h+i+j+k+l+m+n+o+p+q+r+s+t+u+v+w+x+y+z+A+          ",
"          B+C+D+E+ +F+G+H+I+J+K+L+M+N+O+P+Q+R+E+g+S+T+          ",
"          U+V+W+X+Y+Z+`+ @.@+@@@#@$@%@&@*@=@-@X+;@>@,@          ",
"            '@)@!@~@{@]@^@/@(@_@:@&@<@[@}@|@1@2@3@'@            ",
"            4@5@6@7@8@9@0@a@b@c@d@e@f@g@h@i@j@k@l@m@            ",
"              n@o@p@q@k@r@s@t@u@v@w@x@y@z@A@B@C@D@              ",
"                E@F@o@G@H@B@I@J@K@L@M@N@O@P@Q@R@                ",
"                  S@T@U@V@P@W@X@Y@Z@`@ #.#+#@#                  ",
"                    ##$#%#&#D@*#=#-#;#>#&###                    ",
"                        ,#'#S@>#)#!#~#{#]#                      ",
"                              ^#/#(#_#                          ",
"                                                                ",
"                                                                ",
"                                                                ",
"                                                                "};
