/* XPM */
static char * LCMC_icon_xpm[] = {
"32 32 398 2",
"  	c None",
". 	c #E7FEFE",
"+ 	c #DAF5FB",
"@ 	c #CEEEF8",
"# 	c #DCF6FB",
"$ 	c #E6FEFE",
"% 	c #E9FEFE",
"& 	c #E2F9FD",
"* 	c #BCE2F4",
"= 	c #B0DBF1",
"- 	c #B1DBF1",
"; 	c #AFDBF1",
"> 	c #C8E9F7",
", 	c #F0FEFE",
"' 	c #E3FBFE",
") 	c #DEF8FC",
"! 	c #E6FDFE",
"~ 	c #E9FFFF",
"{ 	c #D7F3FA",
"] 	c #BEE6F5",
"^ 	c #A3D6EF",
"/ 	c #A2D5EF",
"( 	c #A1D5EF",
"_ 	c #AEDCF2",
": 	c #EDFCFE",
"< 	c #E9FCFF",
"[ 	c #DDEEF4",
"} 	c #D6C3C9",
"| 	c #EB817E",
"1 	c #ED7E7A",
"2 	c #EE807C",
"3 	c #EF827D",
"4 	c #EE837E",
"5 	c #E5FDFE",
"6 	c #DCF7FC",
"7 	c #AEE1F5",
"8 	c #BCE7F7",
"9 	c #ACDEF4",
"0 	c #DFF8FC",
"a 	c #EAFEFE",
"b 	c #B2E0F4",
"c 	c #98D2EE",
"d 	c #98D2EF",
"e 	c #B2DFF4",
"f 	c #EEDBDB",
"g 	c #EAA9A9",
"h 	c #E99090",
"i 	c #EB8583",
"j 	c #EE7D79",
"k 	c #EF817C",
"l 	c #E8FEFE",
"m 	c #EBFFFF",
"n 	c #E7FDFE",
"o 	c #B1E4F6",
"p 	c #9FD9F3",
"q 	c #E1FAFD",
"r 	c #C3E9F7",
"s 	c #96D2EF",
"t 	c #A6BDD5",
"u 	c #D88C93",
"v 	c #EB7B7A",
"w 	c #EC7876",
"x 	c #EE7876",
"y 	c #EE7B78",
"z 	c #EC7E7A",
"A 	c #EA8380",
"B 	c #C9EDF5",
"C 	c #D7F3F9",
"D 	c #E2FAFD",
"E 	c #C7EDF8",
"F 	c #7BCAEE",
"G 	c #93D6F2",
"H 	c #A6DEF4",
"I 	c #9ED9F2",
"J 	c #89CDEE",
"K 	c #90C7E6",
"L 	c #D198A1",
"M 	c #ED7272",
"N 	c #ED7373",
"O 	c #EB7574",
"P 	c #EC7775",
"Q 	c #ED7876",
"R 	c #EB8380",
"S 	c #D0BCC3",
"T 	c #A1DDEF",
"U 	c #4EA0CD",
"V 	c #6AB3DA",
"W 	c #83C6E5",
"X 	c #6CBAE3",
"Y 	c #70C1E9",
"Z 	c #73C5ED",
"` 	c #7ACBEF",
" .	c #80C5E8",
"..	c #A7A5BB",
"+.	c #EA7274",
"@.	c #ED7071",
"#.	c #EC7272",
"$.	c #EC7473",
"%.	c #E88482",
"&.	c #D0BFC6",
"*.	c #B2E5F4",
"=.	c #A6DEEF",
"-.	c #1C83B8",
";.	c #509AC8",
">.	c #61A9D3",
",.	c #65B4DB",
"'.	c #65B4DD",
").	c #68B9E3",
"!.	c #6BBCE5",
"~.	c #8AA9CA",
"{.	c #D5868F",
"].	c #EB6D6E",
"^.	c #ED6F70",
"/.	c #EB7071",
"(.	c #EC7373",
"_.	c #EC7574",
":.	c #ED7775",
"<.	c #E68A8B",
"[.	c #C9C7D1",
"}.	c #B4E7F6",
"|.	c #AFE3F3",
"1.	c #A3DCEE",
"2.	c #77C7E0",
"3.	c #1777AE",
"4.	c #4693C1",
"5.	c #5AA3CE",
"6.	c #5AA3D0",
"7.	c #5FB1D9",
"8.	c #6EA9CF",
"9.	c #AB8BA1",
"0.	c #E26E73",
"a.	c #EC6B6D",
"b.	c #EC7071",
"c.	c #EB7272",
"d.	c #ED7473",
"e.	c #DD9FA3",
"f.	c #C1D8E5",
"g.	c #B4E8F8",
"h.	c #AAE3F4",
"i.	c #A9E0F0",
"j.	c #9DD9EC",
"k.	c #6CC0DC",
"l.	c #1465A1",
"m.	c #3083B6",
"n.	c #5199C5",
"o.	c #539DCA",
"p.	c #878BAB",
"q.	c #CE727D",
"r.	c #EC676B",
"s.	c #EB6A6C",
"t.	c #EA6B6D",
"u.	c #E68486",
"v.	c #CEBEC7",
"w.	c #B9E5F5",
"x.	c #ADE7F9",
"y.	c #ACE4F5",
"z.	c #A4DFF1",
"A.	c #A2DCEE",
"B.	c #8BD0E6",
"C.	c #61B6D6",
"D.	c #125E9A",
"E.	c #176EA6",
"F.	c #4988B6",
"G.	c #B37587",
"H.	c #E2666D",
"I.	c #EC6669",
"J.	c #EB6B6D",
"K.	c #EA7474",
"L.	c #D4B0B7",
"M.	c #79ADD1",
"N.	c #9DDCF3",
"O.	c #AFE8F9",
"P.	c #A6E3F5",
"Q.	c #A2DFF2",
"R.	c #A5DEEF",
"S.	c #95D6E9",
"T.	c #6DC0DB",
"U.	c #15619C",
"V.	c #11629A",
"W.	c #4B618D",
"X.	c #D1616C",
"Y.	c #E86266",
"Z.	c #EB6468",
"`.	c #EB6669",
" +	c #EC6A6C",
".+	c #E07075",
"++	c #9D88A1",
"@+	c #7FB7D8",
"#+	c #6DB8DD",
"$+	c #88CBE8",
"%+	c #9FDFF4",
"&+	c #A7E3F6",
"*+	c #A4E0F2",
"=+	c #9DDBEE",
"-+	c #8CCEE4",
";+	c #72C3DE",
">+	c #5EB2D2",
",+	c #115C97",
"'+	c #7F5B7A",
")+	c #E75E64",
"!+	c #EB6065",
"~+	c #EB6266",
"{+	c #EA6468",
"]+	c #E6676B",
"^+	c #E46C72",
"/+	c #DE8E94",
"(+	c #C8C5D0",
"_+	c #B9EFFD",
":+	c #97D6EF",
"<+	c #61ADD4",
"[+	c #79BEDF",
"}+	c #77BFDF",
"|+	c #9FDFF3",
"1+	c #9BDDF1",
"2+	c #8CCDE5",
"3+	c #71B7D6",
"4+	c #2375A9",
"5+	c #1D69A0",
"6+	c #4C9AC5",
"7+	c #0F558F",
"8+	c #D55965",
"9+	c #EB5D63",
"0+	c #EA5F64",
"a+	c #D86069",
"b+	c #C4606E",
"c+	c #A1647A",
"d+	c #9591AB",
"e+	c #A9D7EA",
"f+	c #A9E4F8",
"g+	c #AADBEE",
"h+	c #B0D5E7",
"i+	c #ACD1E2",
"j+	c #ABCFDF",
"k+	c #ACCEDE",
"l+	c #A4CCDE",
"m+	c #8AB6CF",
"n+	c #95C9DC",
"o+	c #89C8DE",
"p+	c #67B6D3",
"q+	c #135C97",
"r+	c #105F98",
"s+	c #155E97",
"t+	c #0C4783",
"u+	c #E95A61",
"v+	c #EA5B62",
"w+	c #B2576B",
"x+	c #865472",
"y+	c #6B5579",
"z+	c #535A83",
"A+	c #4D628C",
"B+	c #A69BAE",
"C+	c #C398A4",
"D+	c #D18B93",
"E+	c #D98188",
"F+	c #DF7C7F",
"G+	c #E4787B",
"H+	c #E67678",
"I+	c #E57878",
"J+	c #E27B7D",
"K+	c #DB8183",
"L+	c #CE8489",
"M+	c #C69097",
"N+	c #98798D",
"O+	c #6C6686",
"P+	c #4E5D86",
"Q+	c #2D5184",
"R+	c #0A4482",
"S+	c #EA595F",
"T+	c #E95860",
"U+	c #E95960",
"V+	c #834C6B",
"W+	c #875372",
"X+	c #A9566C",
"Y+	c #CA5D6A",
"Z+	c #E96368",
"`+	c #ED6E6F",
" @	c #EC7070",
".@	c #ED7171",
"+@	c #EE7C79",
"@@	c #E47B7A",
"#@	c #C1747D",
"$@	c #A76A79",
"%@	c #EA545D",
"&@	c #E9565E",
"*@	c #EA5860",
"=@	c #E35B63",
"-@	c #CA6571",
";@	c #C38B96",
">@	c #B39CAA",
",@	c #A2A8B9",
"'@	c #99B4C5",
")@	c #8FB6CB",
"!@	c #8BB7CB",
"~@	c #85B2C8",
"{@	c #83AEC4",
"]@	c #87A3BC",
"^@	c #8688A4",
"/@	c #7B5D7A",
"(@	c #9E687B",
"_@	c #C9747A",
":@	c #EF847F",
"<@	c #EF867F",
"[@	c #E9545D",
"}@	c #DA5B65",
"|@	c #914C67",
"1@	c #4B426D",
"2@	c #19407D",
"3@	c #13407C",
"4@	c #2F699C",
"5@	c #3879A7",
"6@	c #1C568B",
"7@	c #4F9BC1",
"8@	c #6CC3DE",
"9@	c #6AC1DC",
"0@	c #69C0DC",
"a@	c #62B5D7",
"b@	c #5CAAD3",
"c@	c #559FCD",
"d@	c #175290",
"e@	c #0C3D79",
"f@	c #0E3873",
"g@	c #10346F",
"h@	c #1D3771",
"i@	c #EE837D",
"j@	c #EE8580",
"k@	c #EE8781",
"l@	c #EF8882",
"m@	c #F08982",
"n@	c #EA565E",
"o@	c #EA585F",
"p@	c #EA5A61",
"q@	c #E95B62",
"r@	c #042F70",
"s@	c #052D6B",
"t@	c #053170",
"u@	c #06316C",
"v@	c #073673",
"w@	c #083B7B",
"x@	c #083B79",
"y@	c #104A88",
"z@	c #5FB1D3",
"A@	c #60B2D6",
"B@	c #5EADD5",
"C@	c #57A0CE",
"D@	c #5194C2",
"E@	c #336B9B",
"F@	c #063473",
"G@	c #052E69",
"H@	c #052F6F",
"I@	c #042E6E",
"J@	c #F08B83",
"K@	c #052D6C",
"L@	c #043075",
"M@	c #052D6A",
"N@	c #052F6D",
"O@	c #053171",
"P@	c #24598F",
"Q@	c #5092C3",
"R@	c #4D8FBB",
"S@	c #4680A9",
"T@	c #3F7498",
"U@	c #2B5A7F",
"V@	c #052E6E",
"W@	c #052E6D",
"X@	c #053075",
"Y@	c #042D6B",
"Z@	c #052C6A",
"`@	c #052E6F",
" #	c #042F73",
".#	c #053074",
"+#	c #225588",
"@#	c #417B9F",
"##	c #3D7697",
"$#	c #376986",
"%#	c #235078",
"&#	c #09326F",
"*#	c #043074",
"=#	c #052C68",
"-#	c #04275D",
";#	c #042C67",
">#	c #042D6D",
",#	c #042B66",
"'#	c #153D6C",
")#	c #2F586E",
"!#	c #2A526A",
"~#	c #1A4063",
"{#	c #052C66",
"]#	c #031B40",
"^#	c #04265A",
"/#	c #062D66",
"(#	c #052C69",
"_#	c #04265B",
":#	c #031A3F",
"<#	c #010B19",
"[#	c #00060E",
"}#	c #00050D",
"|#	c #000206",
"1#	c #000000",
"                                                                ",
"                                                                ",
"                                                                ",
"                                                                ",
"                            . + @ #                             ",
"                      $ % & * = - ; > , '                       ",
"                  ) ! ~ ! { ] ^ / ( _ : < [ } | 1 2 3 4         ",
"                5 6 7 8 9 0 a b c d e f g h i j 1 2 k           ",
"              l m n o p q % r s s t u v w x y j z A             ",
"            B C D E F G H I J K L M N O P Q y R S T             ",
"            U V W X Y Z `  ...+.@.#.$.O P x %.&.*.=.            ",
"          -.;.>.,.'.).!.~.{.].^./.M (._.:.<.[.}.|.1.2.          ",
"          3.4.5.6.7.8.9.0.a.].^.b.c.d._.e.f.g.h.i.j.k.          ",
"          l.m.n.o.p.q.r.s.t.].^.b.M u.v.w.x.y.z.A.B.C.          ",
"          D.E.F.G.H.I.r.s.J.].^.K.L.M.N.O.P.Q.R.S.T.U.          ",
"          V.W.X.Y.Z.`.r. +a..+++@+#+$+%+&+*+=+-+;+>+,+          ",
"          '+)+!+~+{+]+^+/+(+_+:+<+[+}+|+1+2+3+4+5+6+7+          ",
"        8+9+0+a+b+c+d+e+f+g+h+i+j+k+l+m+n+o+p+q+r+s+t+          ",
"      u+v+w+x+y+z+A+B+C+D+E+F+G+H+I+J+K+L+M+N+O+P+Q+R+          ",
"  S+T+U+  V+W+X+Y+Z+I.r. +a.].`+ @.@$._.:.x y +@@@#@$@          ",
"%@&@*@U+v+=@0+!+~+Z.-@;@>@,@'@)@!@!@~@{@]@^@/@(@_@2 3 4 :@<@    ",
"[@&@*@u+v+9+}@|@1@2@3@4@5@6@7@8@9@0@a@b@c@d@e@f@g@h@  i@j@k@l@m@",
"%@n@o@p@q@    r@s@t@u@v@w@x@y@z@A@B@C@D@E@F@G@H@I@          l@J@",
"                K@L@s@M@N@G@O@P@Q@R@S@T@U@V@W@X@                ",
"                  Y@Z@`@ #V@.#+#@###$#%#&#*#=#                  ",
"                    -#;#>#,#I@'#)#!#~#{#,#-#                    ",
"                        ]#^#Y@{#/#(#_#:#<#                      ",
"                              [#}#|#1#                          ",
"                                                                ",
"                                                                ",
"                                                                ",
"                                                                "};
